<svg version="1" xmlns="http://www.w3.org/2000/svg" width="933.333" height="933.333" viewBox="0 0 700.000000 700.000000"><path d="M518 103.8c-1.4.2-5.9 1.2-10 2.2-4.1 1-8.6 2.1-10 2.4-1.4.2-9 2-17 3.9-8 2-33.6 8.1-57 13.7s-49 11.7-57 13.6c-8 2-15.4 3.7-16.5 4-1.1.2-6.5 1.5-12 2.8-5.5 1.4-11.1 2.7-12.5 3-1.4.2-9 2-17 4-7.9 2-15.4 3.8-16.5 4-1.1.2-4 .9-6.5 1.6-2.5.7-5.5 1.4-6.8 1.6-1.9.4-8.1 1.9-20.2 4.9-.8.2-5.8 1.3-11 2.5s-10.2 2.3-11 2.6c-3 .7-10.5 2.6-12 2.9-.8.2-5.5 1.3-10.5 2.5-4.9 1.2-9.7 2.3-10.5 2.5-1.3.3-7.1 1.7-12 2.9-.8.2-18.8 4.5-40 9.6-55.8 13.2-55.2 13.1-58.7 14.7-1.7.8-3.9 2.5-4.7 3.8-1.2 1.8-8 26-11.1 39.5-.1.8-2.6 10.5-5.5 21.5-2.8 11-5.3 20.7-5.5 21.5-.1.8-3.7 14.8-7.8 31-14.7 57.4-15.8 61.9-15.3 64.3.6 3.3 2.5 6.9 4.5 8.4 1.4 1.1 27.4 16.4 33.6 19.9 3.2 1.7 8.6 4.9 14.5 8.4 5.2 3.1 12.2 7.1 16.5 9.4 1.1.6 3.1 1.9 4.5 2.7 1.4.9 14.9 8.7 30 17.4s34 19.6 42 24.2c8 4.6 15.2 8.8 16 9.3.8.5 9.6 5.6 19.5 11.3 9.9 5.8 19.6 11.4 21.5 12.4 1.9 1.1 16.1 9.3 31.5 18.3 15.4 9 30 17.4 32.4 18.8 2.4 1.3 18 10.3 34.5 20 16.6 9.6 32 18.6 34.4 19.9 2.3 1.3 11.2 6.4 19.7 11.2 12.8 7.4 15.9 8.8 18.7 8.4 1.8-.3 4.2-.5 5.3-.6 1.1-.1 2.5-.9 3-1.8.6-.9 4-5.9 7.7-11 3.7-5.2 11.9-16.8 18.2-25.9 6.3-9.1 12.8-18.5 14.6-21 3.5-5 14.4-20.6 16-23 .5-.8 4.1-6 7.9-11.5 3.9-5.5 8.5-12.1 10.3-14.8 1.8-2.6 4.4-6.3 5.8-8.1 1.4-1.9 8-11.5 14.8-21.3 6.8-9.8 20.5-29.5 30.4-43.8 10-14.3 31-44.5 46.6-67 15.7-22.6 33.7-48.4 40.1-57.5 19.2-27.6 20-28.9 20.6-32.3.9-4.8-1.2-9.2-9.1-18.4-3.8-4.4-12.3-14.4-18.9-22.3-6.6-7.9-12.4-14.8-13-15.4-1.3-1.4-11.5-13.5-13.7-16.1-2.1-2.6-15.2-18-18.8-22.2-1.5-1.8-5.9-7-9.6-11.5-3.8-4.6-7.5-8.9-8.2-9.7-1.6-1.7-30.4-35.7-35.2-41.7-3.7-4.5-9.5-7.3-14-6.6z"/></svg>