<svg id="Layer_1" data-name="Layer 1" xmlns="http://www.w3.org/2000/svg" viewBox="0 0 219.99 50"><defs><style>.cls-1{fill:#00b2cf;}.cls-2{fill:#0084a5;fill-rule:evenodd;}</style></defs><title>Artboard 1</title><path class="cls-1" d="M10.11,25.8C7.21,25,4.71,24.3,4.71,22s2.25-3.61,6-3.61a13.31,13.31,0,0,1,6.93,2V16.05a16.85,16.85,0,0,0-7.53-1.85C5.22,14.2,0,16.29,0,22.16c0,5.29,4.48,6.6,8.44,7.76,3.25.95,6.32,1.84,6.32,4.82,0,2.34-2.11,3.52-6.27,3.52a14.19,14.19,0,0,1-8.1-2.48v4.52a18.32,18.32,0,0,0,9.33,2.31c5.55,0,9.75-3.24,9.75-7.54C19.46,28.38,14.28,26.95,10.11,25.8Z"/><path class="cls-1" d="M28.53,16.07H23.82v5.58H20.16V25.5h3.66V35.89c0,4.22,2.49,6.73,6.66,6.73a8.8,8.8,0,0,0,3.19-.55V38.43a6.7,6.7,0,0,1-2.23.34c-1.85,0-2.91-.42-2.91-2.59V25.5h5.14V21.65H28.53Z"/><path class="cls-1" d="M45.7,21.35c-6.46,0-10,3.78-10,10.63s3.56,10.63,10,10.63,10-3.77,10-10.63S52.16,21.35,45.7,21.35Zm0,17.59c-3.18,0-5.31-1.19-5.31-7s2.13-7,5.31-7S51,26.22,51,32,48.89,38.95,45.7,38.95Z"/><path class="cls-1" d="M59,42.28h4.71V26.18A46,46,0,0,1,71,25.33L69.71,21.7C62.1,21.87,59,23.48,59,23.48Z"/><path class="cls-1" d="M80.3,41.44l0,.09c-.74,2-1.82,4.67-3.95,4.67a11.93,11.93,0,0,1-3.2-.51v3.68a15,15,0,0,0,4,.64c2.09,0,4.7-.17,7.3-7l8.14-21.3h-5L82.64,37,77.57,21.65h-5Z"/><path class="cls-1" d="M102.58,21.35a13.38,13.38,0,0,0-8.88,3.33V49.81h4.7V42.26l.31.07a16.19,16.19,0,0,0,3.52.38c6.35,0,9.84-3.71,9.84-10.46C112.08,22.42,105.44,21.35,102.58,21.35Zm-.69,17.93A22.49,22.49,0,0,1,98.63,39l-.23,0V26.13a8.8,8.8,0,0,1,4.18-.92c3.37,0,4.75,2.11,4.75,7.29C107.33,37.19,105.65,39.28,101.89,39.28Z"/><path class="cls-1" d="M140.64,26a32.33,32.33,0,0,1,6.53-.78V21.32a34.31,34.31,0,0,0-11.23,2.15v18.8h4.7Z"/><polygon class="cls-1" points="159.16 30.79 168.34 21.65 162.16 21.65 154.47 29.8 154.47 14.36 149.77 14.36 149.77 42.28 154.47 42.28 154.47 35.52 156.18 33.81 163.47 42.28 169.4 42.28 159.16 30.79"/><path class="cls-1" d="M123.1,21.32a21.93,21.93,0,0,0-7.28,1.35l.35,3.45A19.9,19.9,0,0,1,122.79,25c4,0,4.88,2.31,4.88,4.25v.3l-.3,0a26.7,26.7,0,0,0-3.79-.29c-8.45,0-9.11,4.9-9.11,6.4,0,3.37,2.38,7,9.07,7,.23,0,.46,0,.69,0a13.38,13.38,0,0,0,8.19-3.3V30C132.42,24.41,129.11,21.32,123.1,21.32Zm-4,13.68c0-2,1.69-3,5.17-3a22.48,22.48,0,0,1,3.18.26l.22,0v5.57a8.8,8.8,0,0,1-4.18.92C119.94,38.76,119.14,36.66,119.14,35Z"/><path class="cls-1" d="M217.63,2.13a9.48,9.48,0,0,0-8-1.93c-3.25.65-5.26,2.32-6.14,5.06a8.43,8.43,0,0,0,.62,6.72,6,6,0,0,0,.41.57.89.89,0,0,1,.05.16c.37,1.66-2.24,3-2,3.31s2.76,0,4.45-1.11a.75.75,0,0,1,.56-.11,12.05,12.05,0,0,0,7,.66c3.38-.86,4.45-2.79,5.09-5.16C220.09,8.78,220.58,4.74,217.63,2.13Z"/><path class="cls-2" d="M189.49,38a10.52,10.52,0,0,1-.14,2.22,3.44,3.44,0,0,1-1.06-.37c-.45-.27-.56-1-.56-1.67L186.55,38a16.47,16.47,0,0,1-.09,2c-.12,1.08-.44,1.46-.09,1.75s1.58,0,3.2.69c1.08.47,1.67.41,1.94.19,1.52-1.26,4.43-.38,4.55-.74.17-.64-1.16-1-2.69-1.4a12.33,12.33,0,0,1-1.87-.59c-.75-.37-.78-1.52-.78-2.1Z"/><path class="cls-2" d="M197.65,17.37c1.13-.93,2.53-2.43,2.58-4a.93.93,0,0,0-.91-.17A14,14,0,0,1,197,14.79c-.63.29-2.08,1-2.54.18-1.49-2.61-3.91-2.79-6.24-1.92a4.54,4.54,0,0,0-2.73,5.47c.49,2.15,3.11,4.09,5.56,4.21,1.33.07,1.11,1.64,1.11,1.64-1.77.71-4.63,1.36-6.86,3.84a13,13,0,0,0-2,2.83c-2.63,1.4-4.38-1.37-4.38-1.37-1.52,1.49,1.27,3.52,1.27,3.52C179,34.87,182.37,36,182.37,36c-1,1.6,2.39,3.55,7.79,2.34,5.2-1.17,8.67-8.23,7.61-12.43-1.14-4.49-3.15-4.9-2.7-5.63,1-1.69,4-1.53,4.35-1.94,0-.62-1.25-.76-1.77-.93"/></svg>