<svg xmlns="http://www.w3.org/2000/svg" xmlns:xlink="http://www.w3.org/1999/xlink" viewBox="0 0 1239.21 854.9"><defs><style>.cls-1{fill:url(#linear-gradient);}</style><linearGradient id="linear-gradient" x1="-2867.91" y1="1466.05" x2="1957.79" y2="5.4" gradientUnits="userSpaceOnUse"><stop offset="0" stop-color="#e9fcff"/><stop offset="0.32" stop-color="#292b3d"/><stop offset="0.64" stop-color="#cfe0e5"/><stop offset="1" stop-color="#141427"/></linearGradient></defs><title>Artboard 34</title><g id="Layer_8" data-name="Layer 8"><path class="cls-1" d="M996.26,249l1.26,2.64-5.73,4.9-3.86-6.5,2.15-2.1Zm-91.8,84.56-2.14,2.09,3.86,6.51,5.72-4.9-1.25-2.64Zm-85.61,85.62-2.15,2.09,3.86,6.5,5.72-4.89L825,420.21Zm0-171.24L816.7,250l3.86,6.5,5.72-4.9L825,249Zm-85.62,85.62-2.15,2.09,3.87,6.51,5.72-4.9-1.25-2.64ZM476.38,590.39l-2.15,2.09L478.1,599l5.72-4.9-1.25-2.64ZM390.76,676l-2.14,2.09,3.86,6.5,5.72-4.89L397,677.06Zm-85.61,85.61-2.15,2.1,3.86,6.5,5.72-4.9-1.25-2.64ZM750.08,166l-1.25-2.65-6.18-1.05-2.15,2.09,3.86,6.5Zm-85.61,85.61L663.22,249,657,247.92l-2.15,2.1,3.87,6.5Zm-93.05,81.92-2.15,2.09,3.86,6.51,5.72-4.9-1.25-2.64Zm-78.19,89.32L492,420.21l-6.18-1-2.15,2.09,3.86,6.5Zm-93.05,81.91-2.15,2.1,3.87,6.5,5.72-4.9-1.25-2.64Zm-85.61,85.62-2.15,2.09,3.86,6.51,5.72-4.9-1.25-2.64ZM229,676l-2.15,2.09,3.86,6.5,5.72-4.89-1.25-2.65Zm-85.62,85.61-2.15,2.1,3.87,6.5,5.72-4.9-1.25-2.64ZM588.27,166,587,163.36l-6.19-1.05-2.15,2.09,3.87,6.5Zm-85.62,85.61L501.4,249l-6.18-1.06-2.15,2.1,3.86,6.5Zm-93,81.92-2.15,2.09,3.86,6.51,5.73-4.9-1.26-2.64ZM324,419.16l-2.15,2.09,3.87,6.5,5.72-4.89-1.25-2.65Zm-85.61,85.61-2.15,2.1,3.86,6.5,5.72-4.9-1.25-2.64Zm-85.62,85.62-2.15,2.09,3.86,6.51,5.72-4.9-1.25-2.64ZM67.13,676,65,678.1l3.87,6.5,5.72-4.89-1.25-2.65ZM419,162.31l-2.15,2.09,3.86,6.5,5.72-4.89-1.25-2.65ZM333.4,247.92l-2.15,2.1,3.86,6.5,5.73-4.9L339.58,249Zm-85.62,85.62-2.15,2.09,3.87,6.51,5.72-4.9L254,334.6Zm-85.61,85.62L160,421.25l3.86,6.5,5.72-4.89-1.25-2.65ZM76.55,504.77l-2.15,2.1,3.86,6.5,5.73-4.9-1.26-2.64Zm981.7,172.29-6.18-1-2.15,2.09,3.87,6.5,5.72-4.89Zm-91.8,84.56-2.14,2.1,3.86,6.5,5.72-4.9-1.25-2.64ZM257.2,162.31l-2.15,2.09,3.86,6.5,5.73-4.89-1.26-2.65ZM177.77,249l1.25,2.64-5.72,4.9-.38-.64L90.64,334.34l1.51.26,1.25,2.64-5.72,4.9L85.81,339,0,424.79,9.5,252l.14-.14,85-85-1.43-2.42,1.26-1.23L67.08,5.62,65,2.09,67.13,0l6.19,1.06L74.57,3.7l-4,3.41,71.21,80,1.54-1.5,6.19,1,1.25,2.65-5.72,4.89-1.73-2.9L98.59,162.85l3,.51,1.25,2.65-3.88,3.31,75.32,79.06ZM95.41,162.31l2.07.35L142.72,90.3l-1-1.69L69.79,7.79l-.94.81-.27-.45Zm-9.06,171.3,11.05-163-.3.25-1.88-3.15-84.69,84.7L1.2,422.12l84.06-84.06-1.44-2.43.18-.18L17,252l.82-.65,67,83.42L86,333.54ZM169.43,250l2.15-2.1.95.16L98.47,170.34,87.39,333.78l2,.34,83-79.16ZM1147.1,419.16l-2.14,2.09,3.86,6.5,5.72-4.89-1.25-2.65Zm-85.61,85.61-2.15,2.1,3.86,6.5,5.72-4.9-1.25-2.64Zm-85.62,85.62-2.15,2.09,3.87,6.51,5.72-4.9-1.25-2.64ZM890.26,676l-2.15,2.09,3.86,6.5,5.72-4.89-1.25-2.65Zm-79.44,86.67,1.25,2.64-5.72,4.9-2.22-3.74-157.54,2-2.05,1.76-3.87-6.5,1.11-1.08-74.06-81.47-4,3.43-1-1.59-79,82.12.1.19-1.6,1.37-3.75,3.89-.75-.72.1-.11-3.59-6,2.15-2.1,6.19,1.06.68,1.44,79-82-2.36-4L562,676l2.12.36V513l-.41.35-3.86-6.5,2.15-2.1,5.3.91,80.5-80.5-2.33-3.93,2.14-2.09,6.19,1,1.25,2.65L652.54,425l80.23,80.22.46-.45,6.19,1.06,1.25,2.64-5.72,4.9-1-1.65-80,80,1.11,2.34-5.72,4.9-1-1.64L568.63,678l.8,1.69-.92.78,74,81.42.29-.29,5.3.91,80.5-80.5-2.33-3.93,2.15-2.09,6.18,1,1.26,2.65L733.25,682l71.13,79.92.26-.25ZM568.32,506.13l1.11,2.34-.06.06L731.73,508l-.65-1.09L732,506l-80.27-80.28-2.42,2.07-1-1.65Zm-1.4,4.49,80,80.42.67-.65,5.3.9,80.5-80.5L732.35,509l-164.21.58Zm1.2,166.43,79.69-80.63-2.34-3.94.72-.71L566.13,511.3l-1,.83V676.55Zm234.37,86.67,1.14-1.12-71.18-80-2.3,2-1-1.65-80,80,1.11,2.34-2.43,2.08,155.69-1.95Zm275.85-426.48-1.25-2.64-6.19-1.06-2.14,2.09,3.86,6.51Zm-93,81.92-2.15,2.09,3.86,6.5,5.72-4.89-1.25-2.65Zm-85.62,85.61-2.15,2.1,3.87,6.5,5.72-4.9-1.25-2.64Zm-85.61,85.62-2.15,2.09,3.86,6.51,5.72-4.9-1.25-2.64ZM392.48,8.6l-3.86-6.51L390.76,0,397,1.06,398.2,3.7l-.09.08H560.85l-1-1.69L562,0l6.18,1.06,1.25,2.64L566.8,6c19.21,21.71,61.57,68.84,75,80.7l1.06-1,6.19,1,1.25,2.65-5.72,4.89-3.87-6.5.35-.34c-4.84-4.28-15.29-14.71-38.67-40.31C586.55,29.77,571.1,12.38,566,6.63l-2.3,2-1-1.65-80,80,1.11,2.35-5.72,4.89-3.87-6.5.94-.91L394.9,6.53Zm3.21-2.75,80.23,80.22.46-.45,5.3.9L562.18,6l-.71-1.2H396.89ZM312.58,89.32l-1.25-2.65-6.18-1L303,87.71l3.86,6.5ZM236.38,3.7l-1.25-2.64L229,0,226.8,2.09l3.86,6.51Zm823.13,0-1.26-2.64L1052.07,0l-2.15,2.09,3.87,6.51Zm172.26,329.84-2.15,2.09,3.86,6.51,5.73-4.9L1238,334.6Zm-8,343.52,1.26,2.65-5.73,4.89-3.58-6-81.13,84.32,1.15,2.43-5.17,4.43,0,.67-.11.14-70.65,84.34-.8-.67L1129.47,770l0-.6-3.39-5.7,2.15-2.1,1.68.29,9.61-163.06-.16.14-3.86-6.51,2.15-2.09,6.18,1.06,1.25,2.64-2.61,2.24,73.28,81.4,1.77-1.72Zm-9,1-73-81.08-1,.89L1131,762.09l2.48.42ZM1227,504.77l-2.15,2.1,3.86,6.5,5.72-4.9-1.25-2.64ZM1225,3.7l-1.26-2.64L1217.56,0l-2.15,2.09,3.86,6.51ZM730.15,8.6l-3.86-6.51L728.44,0l6.18,1.06,1.26,2.64-.09.08H889.11l-1-1.69L890.26,0l6.18,1.06,1.25,2.64-1.43,1.22,70,80.9.2-.2,6.19,1,1.25,2.65-5.72,4.89-.78-1.3L911,164.09l.26.54,216.5-74.18-1.63-2.74,2.15-2.09,6.18,1,1.26,2.65-2.19,1.87,97.27,72.08,1-1,6.18,1.05,1.26,2.65-5.73,4.89-.86-1.46L1162.71,249l1.25,2.64-5.26,4.5,0,.32-.51.08h0l-.52.08-.21-1.31-3.14-5.27,1-1-75.64-80.13-2.36,2-2.22-3.74-166.38,1.49-2.63,2.25-3.86-6.5,2.14-2.09,1.77.3L892.7,8,892,8.6l-1-1.69L811,87l1.11,2.35-5.72,4.89-3.86-6.5,1.14-1.11-71.18-80Zm402,83.73,25.21,155.74,4.1.7,70.55-80.27-2.43-4.1.41-.39L1132.7,91.89ZM910.05,167.59l164.52-1.47-1-1.72,2.15-2.09,6.18,1.05,1.25,2.65-2.56,2.19,75.59,80.08.18-.18-25.08-155L1130,94.21l-1.69-2.84L911.7,165.58l.2.43ZM893.67,7.14,907.3,162.79l3,.51L966.82,92l-2.51-4.24,1.19-1.16-70-80.95ZM733.25,6l71.13,79.92.26-.25,5.29.9L890.42,6l-.69-1.16H734.56Z"/></g></svg>