<svg xmlns="http://www.w3.org/2000/svg" xmlns:xlink="http://www.w3.org/1999/xlink" viewBox="0 0 116.41 116.02"><defs><style>.cls-1{opacity:0.1;}.cls-2{fill:#fff;}.cls-3{fill:#d60a51;}.cls-4{fill:#d60b51;}.cls-5{fill:#b70745;}.cls-6{fill:#940938;}.cls-7{fill:#a6093e;}.cls-8{opacity:0.7;}.cls-9{fill:url(#linear-gradient);}.cls-10{fill:url(#linear-gradient-2);}.cls-11{fill:url(#linear-gradient-3);}.cls-12{fill:url(#linear-gradient-4);}.cls-13{fill:url(#linear-gradient-5);}.cls-14{fill:url(#linear-gradient-6);}.cls-15{fill:url(#linear-gradient-7);}.cls-16{fill:url(#linear-gradient-8);}.cls-17{fill:url(#linear-gradient-9);}.cls-18{fill:url(#linear-gradient-10);}.cls-19{fill:url(#linear-gradient-11);}.cls-20{fill:url(#linear-gradient-12);}.cls-21{fill:url(#linear-gradient-13);}.cls-22{fill:url(#linear-gradient-14);}.cls-23{fill:url(#linear-gradient-15);}.cls-24{fill:url(#linear-gradient-16);}.cls-25{fill:url(#linear-gradient-17);}.cls-26{fill:url(#linear-gradient-18);}.cls-27{fill:url(#linear-gradient-19);}.cls-28{fill:url(#linear-gradient-20);}.cls-29{fill:url(#linear-gradient-21);}.cls-30{fill:url(#linear-gradient-22);}.cls-31{fill:url(#linear-gradient-23);}.cls-32{fill:url(#linear-gradient-24);}.cls-33{fill:url(#linear-gradient-25);}</style><linearGradient id="linear-gradient" x1="16.55" y1="380.14" x2="21.06" y2="377.26" gradientTransform="translate(-92.48 -262.33) rotate(-21.35)" gradientUnits="userSpaceOnUse"><stop offset="0" stop-color="#d60b51"/><stop offset="1"/></linearGradient><linearGradient id="linear-gradient-2" x1="24.36" y1="372.49" x2="21.17" y2="373.96" xlink:href="#linear-gradient"/><linearGradient id="linear-gradient-3" x1="24.21" y1="380.21" x2="24.31" y2="382.48" xlink:href="#linear-gradient"/><linearGradient id="linear-gradient-4" x1="28.99" y1="365.67" x2="27.26" y2="367.18" xlink:href="#linear-gradient"/><linearGradient id="linear-gradient-5" x1="29.37" y1="365.39" x2="30.2" y2="364.49" xlink:href="#linear-gradient"/><linearGradient id="linear-gradient-6" x1="32.55" y1="365.69" x2="33.46" y2="365.02" xlink:href="#linear-gradient"/><linearGradient id="linear-gradient-7" x1="36.26" y1="365.06" x2="37.14" y2="364.12" xlink:href="#linear-gradient"/><linearGradient id="linear-gradient-8" x1="37.46" y1="362.29" x2="37.96" y2="362.35" gradientTransform="translate(-92.48 -262.33) rotate(-21.35)" gradientUnits="userSpaceOnUse"><stop offset="0.11" stop-color="#d60b51"/><stop offset="0.95" stop-color="#2d292a" stop-opacity="0.95"/><stop offset="1"/></linearGradient><linearGradient id="linear-gradient-9" x1="38.92" y1="363.72" x2="40.57" y2="363.2" xlink:href="#linear-gradient"/><linearGradient id="linear-gradient-10" x1="41.71" y1="364.39" x2="43.81" y2="362.8" xlink:href="#linear-gradient"/><linearGradient id="linear-gradient-11" x1="45.1" y1="372.63" x2="41.64" y2="373.69" xlink:href="#linear-gradient"/><linearGradient id="linear-gradient-12" x1="38.37" y1="378.56" x2="40.15" y2="378.13" xlink:href="#linear-gradient"/><linearGradient id="linear-gradient-13" x1="33.8" y1="377.36" x2="35.71" y2="377.6" xlink:href="#linear-gradient"/><linearGradient id="linear-gradient-14" x1="49.15" y1="361" x2="50.88" y2="363.44" xlink:href="#linear-gradient"/><linearGradient id="linear-gradient-15" x1="44.01" y1="375.61" x2="45.6" y2="375.72" xlink:href="#linear-gradient"/><linearGradient id="linear-gradient-16" x1="46.93" y1="377.07" x2="48.43" y2="376.83" xlink:href="#linear-gradient"/><linearGradient id="linear-gradient-17" x1="46.11" y1="377.71" x2="44.06" y2="377.88" xlink:href="#linear-gradient"/><linearGradient id="linear-gradient-18" x1="51.42" y1="377.22" x2="50.58" y2="378" xlink:href="#linear-gradient"/><linearGradient id="linear-gradient-19" x1="52.15" y1="375.16" x2="53.73" y2="374.9" xlink:href="#linear-gradient"/><linearGradient id="linear-gradient-20" x1="49.4" y1="381.69" x2="51.77" y2="381.55" xlink:href="#linear-gradient"/><linearGradient id="linear-gradient-21" x1="46.99" y1="385.52" x2="47.66" y2="387.16" xlink:href="#linear-gradient"/><linearGradient id="linear-gradient-22" x1="13.52" y1="387.22" x2="14.49" y2="389.89" xlink:href="#linear-gradient"/><linearGradient id="linear-gradient-23" x1="37.68" y1="379.53" x2="36.65" y2="380.27" xlink:href="#linear-gradient"/><linearGradient id="linear-gradient-24" x1="55.94" y1="378.24" x2="53.31" y2="378.91" xlink:href="#linear-gradient"/><linearGradient id="linear-gradient-25" x1="22.78" y1="360.85" x2="21.12" y2="362.87" xlink:href="#linear-gradient"/></defs><title>graphic-tickets</title><g id="Layer_2" data-name="Layer 2"><g id="v1"><path class="cls-1" d="M32.1,10.6A11.39,11.39,0,0,1,14,24.36L0,35l58.27,76.78,14-10.6c-.09-.11-.19-.21-.27-.32A11.4,11.4,0,0,1,90.13,87c.09.12.16.23.24.35l14-10.6L46.07,0Z"/><path class="cls-2" d="M39.25,12.4A11.39,11.39,0,0,1,21.11,26.16l-14,10.6,58.27,76.78,14-10.6c-.08-.11-.18-.21-.26-.32A11.4,11.4,0,0,1,97.28,88.84c.09.11.15.23.23.34l14-10.6L53.21,1.8Z"/><path class="cls-1" d="M58.61,7.9A11.39,11.39,0,0,1,37.4,16.19L21.07,22.57l35.09,89.77L72.49,106c0-.13-.12-.25-.17-.38a11.4,11.4,0,1,1,21.24-8.3c0,.13.09.26.13.39L110,91.29,74.94,1.52Z"/><path class="cls-2" d="M65,11.58a11.39,11.39,0,0,1-21.2,8.29L27.46,26.25,62.55,116l16.33-6.38c-.06-.13-.12-.25-.17-.38A11.4,11.4,0,1,1,99.94,101c.06.13.09.26.14.4L116.41,95,81.32,5.2Z"/><path class="cls-3" d="M42.33,53.32A1,1,0,0,1,42,51.39l2.79-1.1a1,1,0,1,1,.73,1.87L42.7,53.25A1,1,0,0,1,42.33,53.32Z"/><path class="cls-3" d="M50.92,50A1,1,0,0,1,50.56,48l5-1.94A1,1,0,0,1,56.26,48l-5,1.94A.94.94,0,0,1,50.92,50Zm10.77-4.21a1,1,0,0,1-.36-1.93l5-1.94A1,1,0,0,1,67,43.74l-5,1.94A1,1,0,0,1,61.69,45.75Zm10.77-4.21a1,1,0,0,1-.37-1.93l5-1.94a1,1,0,1,1,.73,1.86l-5,1.95A1.13,1.13,0,0,1,72.46,41.54Z"/><path class="cls-3" d="M83.23,37.34a1,1,0,0,1-.37-1.94l2.8-1.09a1,1,0,1,1,.72,1.86l-2.79,1.1A1.15,1.15,0,0,1,83.23,37.34Z"/><g id="Logotype"><path class="cls-4" d="M65.31,62.64l.48,0a1.51,1.51,0,0,0,.33-.07l.08,0a.72.72,0,0,0,.1-.18,2.39,2.39,0,0,0,0-.36,3.3,3.3,0,0,0,0-.47,3.78,3.78,0,0,0,0-.46c0-.14,0-.28,0-.36a.37.37,0,0,1,0-.2.27.27,0,0,0-.21-.09,2.28,2.28,0,0,0-.44,0,2.9,2.9,0,0,0-.51,0,1.13,1.13,0,0,0-.31.06l-.07,0s-.1.12-.14.31a4.48,4.48,0,0,0-.06.62,5.15,5.15,0,0,0,0,.68,2.1,2.1,0,0,0,.09.53s.08.05.2.06Z"/><path class="cls-4" d="M68,66.08l-.27.61c-.1.24-.21.48-.32.69l-.33.67a4,4,0,0,1-.31.51.72.72,0,0,1-.23.26.05.05,0,0,1-.07,0,2,2,0,0,1-.08-.33c0-.17,0-.36-.05-.57s0-.44,0-.7a6.4,6.4,0,0,1,0-.76q0-.37,0-.72c0-.22,0-.44,0-.6a.89.89,0,0,1,0-.11l0-.07c0-.08-.14-.15-.29-.23s-.34-.09-.53-.13l-.53,0a.49.49,0,0,0-.29,0s0,.13,0,.3,0,.45,0,.77a7.43,7.43,0,0,0,0,1c0,.39,0,.78.07,1.18s.06.8.09,1.18.08.7.14,1a.39.39,0,0,0,.23.24,2,2,0,0,0,.43.15,3.31,3.31,0,0,0,.45,0,1.36,1.36,0,0,0,.29-.06l0,0a1.27,1.27,0,0,0,.41-.39c.17-.23.33-.46.47-.68a9,9,0,0,0,.44-.88l.43-.93a2,2,0,0,1,.15-.34,4.51,4.51,0,0,0,.17.52.81.81,0,0,0,.35.38,1.87,1.87,0,0,0,.55.18,1.81,1.81,0,0,0,.57,0l.35,0,.05,0a1.85,1.85,0,0,0,.65-.76,8.37,8.37,0,0,0,.57-1.21.73.73,0,0,0,.41.24,2.18,2.18,0,0,0,.52.1,1.91,1.91,0,0,0,.48,0,.8.8,0,0,0,.29,0l.07,0A2.31,2.31,0,0,0,73.7,66a3,3,0,0,0,.4-.64c.13-.24.25-.52.38-.76a9.2,9.2,0,0,0,.33-.89,1.26,1.26,0,0,0,.91-.19,2.75,2.75,0,0,0,.93-.93,4.54,4.54,0,0,0,.38-.68.28.28,0,0,0,0,.13,8,8,0,0,0,.13,1,.43.43,0,0,0,.24.24,1,1,0,0,0,.41.12,1.74,1.74,0,0,0,.46,0,.93.93,0,0,0,.29-.05l0,0a1.27,1.27,0,0,0,.41-.39c.17-.21.3-.45.46-.69a7.22,7.22,0,0,0,.45-.88c.16-.31.29-.62.42-.92s.26-.58.37-.88.17-.43.23-.62a.11.11,0,0,0,0-.13l-.2-.09-.21-.08a.07.07,0,0,0-.09,0,2.35,2.35,0,0,1-.18.35l-.26.61-.33.69a6,6,0,0,1-.33.67,4.06,4.06,0,0,1-.3.51.87.87,0,0,1-.24.26.05.05,0,0,1-.07,0,1.14,1.14,0,0,1-.07-.33q0-.26-.06-.57c0-.23,0-.44,0-.7s0-.5,0-.75,0-.5,0-.73,0-.44,0-.6a.18.18,0,0,0,0-.11l0-.07c0-.1-.14-.14-.31-.22s-.35-.09-.53-.13l-.53,0a.58.58,0,0,0-.29,0s0,.13-.05.31,0,.45,0,.76,0,.65,0,1.06,0,.67,0,1c-.21.54-.43,1-.6,1.34a2,2,0,0,1-.69.77l-.16.09a.49.49,0,0,1-.39,0,8,8,0,0,0,.19-1,5.89,5.89,0,0,0,.12-.86c0-.24,0-.5,0-.72a1.59,1.59,0,0,0-.09-.5.6.6,0,0,0-.23-.17,3,3,0,0,0-.39-.13,1.27,1.27,0,0,0-.47-.06,1.3,1.3,0,0,0-.48,0,2.51,2.51,0,0,0-.1.66c0,.3,0,.6,0,.89s0,.6.08.9a3.42,3.42,0,0,0,.16.72,2.52,2.52,0,0,0,.32.58c-.06.22-.11.44-.19.67a4.19,4.19,0,0,1-.22.59,4,4,0,0,1-.25.46.83.83,0,0,1-.28.28.11.11,0,0,1-.09,0,.15.15,0,0,1-.07-.11,1.46,1.46,0,0,1-.09-.36c0-.16-.06-.37-.09-.59s-.07-.47-.08-.72l-.07-.82a5.54,5.54,0,0,1,0-.81c0-.27,0-.5,0-.73a6,6,0,0,0-1-.13c-.34,0-.65,0-1,0,0,.33,0,.66,0,1s0,.69.06,1,.06.68.09,1A6.54,6.54,0,0,0,71,65c0,.22-.12.41-.17.63s-.13.39-.21.56a2.25,2.25,0,0,1-.23.43.83.83,0,0,1-.26.27s-.08,0-.09,0a.27.27,0,0,1-.07-.12,2.36,2.36,0,0,1-.1-.38c0-.18-.07-.4-.11-.66s-.07-.54-.1-.84a8.64,8.64,0,0,1-.07-.9c0-.3,0-.58,0-.88s0-.54,0-.77a5.17,5.17,0,0,0-1-.13c-.34,0-.65,0-1,0,0,.42,0,.83.05,1.28s0,.91.08,1.38A3.62,3.62,0,0,1,68,66.08Z"/><path class="cls-4" d="M77.2,55.63a2.83,2.83,0,0,0,.41,0h.47a1.27,1.27,0,0,0,.36-.09l0,0s.05-.07.1-.17a2.58,2.58,0,0,0,0-.36,4.19,4.19,0,0,1,0-.47c0-.18,0-.32,0-.46a2.26,2.26,0,0,0,0-.37.39.39,0,0,1,0-.2.51.51,0,0,0-.21-.11L78,53.32a4.13,4.13,0,0,0-.5,0,1.09,1.09,0,0,0-.34.07l-.07,0s-.1.12-.14.3-.06.42-.07.62,0,.46,0,.69a1.63,1.63,0,0,0,.09.52S77.08,55.62,77.2,55.63Z"/><path class="cls-4" d="M77.5,66.41l-3.17,2.2a.09.09,0,0,0,0,.1l.18,1.54c0,.06,0,.1.1.1l3.68.56a.12.12,0,0,0,.14-.08l.83-3.48a.17.17,0,0,0,0-.15l-1.53-.81C77.57,66.39,77.51,66.38,77.5,66.41Z"/><path class="cls-4" d="M97.5,61a6.54,6.54,0,0,0-.36-.65,4.42,4.42,0,0,0-1.72-1.52,2.76,2.76,0,0,0-.75-.25,3.33,3.33,0,0,0-1.6,0,3.58,3.58,0,0,0-.73.29,3.11,3.11,0,0,0-.63.41,6.2,6.2,0,0,0-1,1.06,7.59,7.59,0,0,0-.69,1.2c-.09.21-.18.41-.26.64a2.33,2.33,0,0,0-.1.32,2.16,2.16,0,0,1-.08.29s0,0,0,.07L90,63a.07.07,0,0,0,.1,0l.11-.22.18-.27c.1-.17.23-.34.33-.52a8.67,8.67,0,0,1,.75-1,4.35,4.35,0,0,1,.88-.77,3.1,3.1,0,0,1,1-.43,3.87,3.87,0,0,1,.49,0,5,5,0,0,1,.51.09c.16.05.32.1.49.17a1.48,1.48,0,0,1,.45.28,3.26,3.26,0,0,1,.72.76,4.16,4.16,0,0,1,.48,1,5.68,5.68,0,0,1,.26,1.17,8.2,8.2,0,0,1,.08,1.21A15,15,0,0,1,96.62,67a19.55,19.55,0,0,1-.56,2.47,3.44,3.44,0,0,1-.14.42c0-.29-.07-.59-.11-.91s-.09-.67-.13-1-.09-.81-.12-1.25-.07-1-.13-1.56c0,0,0-.08,0-.1l0-.1a.65.65,0,0,0-.38-.25,6.13,6.13,0,0,0-.7-.2,3.91,3.91,0,0,0-.73-.14,1.06,1.06,0,0,0-.4,0,1,1,0,0,0,0,.5c0,.33,0,.77.11,1.31a17.51,17.51,0,0,1-.36,2,14.21,14.21,0,0,1-.41,1.48,4.82,4.82,0,0,1-.37.91c-.12.21-.21.34-.3.32a2.14,2.14,0,0,1-.11-.56c0-.27,0-.55,0-.88a9.28,9.28,0,0,1,0-1.05c0-.38,0-.72,0-1s0-.6,0-.84,0-.37,0-.43-.14-.06-.32-.1l-.69,0A7.49,7.49,0,0,0,90,66a1.26,1.26,0,0,0-.68.19c0,.84,0,1.62,0,2.35s.05,1.27.06,1.8l-.18.41a7.82,7.82,0,0,1-.45.72,2.15,2.15,0,0,1-.56.52,3.32,3.32,0,0,1-.7.44,6,6,0,0,0,.14-1.15,3.08,3.08,0,0,0-.1-1l-.41-.35a2.19,2.19,0,0,0-.44-.31,2,2,0,0,0-.4-.24.8.8,0,0,0-.46-.1,1,1,0,0,0-.63.76,5.06,5.06,0,0,0-.18.91A2.49,2.49,0,0,0,85.2,72c.27.62.4.52.51.78l0,.13.06.14c0,.25-.12.5-.19.75a6.57,6.57,0,0,1-.21.68c-.08.17-.15.34-.25.52a.81.81,0,0,1-.3.31.17.17,0,0,1-.17,0,1.33,1.33,0,0,1-.21-.38c-.06-.17-.1-.35-.15-.53a6.24,6.24,0,0,1-.15-.81c0-.33-.11-.66-.15-1a10.83,10.83,0,0,1-.13-1.19c.38-.85.72-1.69,1.07-2.53s.68-1.65,1-2.47.58-1.61.83-2.35.43-1.5.58-2.2A14.79,14.79,0,0,0,87.53,57a2.83,2.83,0,0,0-.81-1.49,3.31,3.31,0,0,0-.66-.25,3.08,3.08,0,0,0-.68-.07.52.52,0,0,0-.29.06,3.49,3.49,0,0,0-1,.86,11.23,11.23,0,0,0-2.16,5.49c-.13,1.12-.39,3-.55,4.58a31.55,31.55,0,0,0-.13,3.57,26.32,26.32,0,0,0,.17,2.81,19.43,19.43,0,0,0,.37,2.11l-.34.78c-.14.28-.28.59-.42.87s-.28.59-.43.84-.27.47-.39.66a.6.6,0,0,1-.38.32,1.4,1.4,0,0,1-.1-.47c0-.21-.07-.45-.1-.75s-.06-.59-.09-1,0-.69-.06-1,0-.66,0-1,0-.24,0-.46a.29.29,0,0,0,0-.16l0-.12a.71.71,0,0,0-.33-.13A3.68,3.68,0,0,0,78.4,73l-.64-.06a1.26,1.26,0,0,0-.38,0,.17.17,0,0,0-.1.18c0,.25,0,.48.06.73a16,16,0,0,1-.4,2.42,17.07,17.07,0,0,1-.4,1.79,8.35,8.35,0,0,1-.39,1.1c-.12.28-.2.42-.32.41a4.86,4.86,0,0,1-.1-.55c0-.27,0-.58,0-.91s0-.71,0-1.1,0-.73,0-1.07,0-2.5,0-2.73a2.86,2.86,0,0,0,0-.46s-.11-.07-.31-.08h-.67a7.55,7.55,0,0,0-.79.08,1.63,1.63,0,0,0-.67.24c0,.84.09,3.54.1,4.3s.06,1.44.1,2,.07,1.13.13,1.56a3.67,3.67,0,0,0,.17.86.68.68,0,0,0,.31.36,1.3,1.3,0,0,0,.51.22,3.3,3.3,0,0,0,.56.07,1.1,1.1,0,0,0,.37-.06l.1,0c.06,0,.13-.08.2-.14A.62.62,0,0,0,76,82c.07-.12.16-.32.29-.57s.25-.58.42-1a13.67,13.67,0,0,0,.46-1.34c.17-.51.29-1.07.44-1.69.06.51.11.94.15,1.32a3.83,3.83,0,0,0,.14.74.68.68,0,0,0,.3.33,2.91,2.91,0,0,0,.48.21,1.52,1.52,0,0,0,.53,0,.7.7,0,0,0,.33-.08l.1,0a2.09,2.09,0,0,0,.53-.52,10.22,10.22,0,0,0,.59-.87c.21-.34.39-.72.58-1.1a12.79,12.79,0,0,0,.55-1.2c.09-.21.16-.38.23-.57l.11.29a1.28,1.28,0,0,0,.41.46,2.89,2.89,0,0,0,.75.41,3.44,3.44,0,0,0,.85.23,1.1,1.1,0,0,0,.62-.07l.12,0a2.65,2.65,0,0,0,.66-.54,4.65,4.65,0,0,0,.62-.8,5.69,5.69,0,0,0,.54-1,10.65,10.65,0,0,1,.59-1.16l.13-.08a6.36,6.36,0,0,0,.87-.54,4.3,4.3,0,0,0,.76-.72l.4-.49a.49.49,0,0,0,0,.21,3.84,3.84,0,0,0,.16.84.73.73,0,0,0,.31.36,2.27,2.27,0,0,0,.52.25,2.19,2.19,0,0,0,.57.09,1.06,1.06,0,0,0,.49-.11.56.56,0,0,0,.2-.14.43.43,0,0,0,.16-.17c.07-.11.15-.26.29-.48a8.27,8.27,0,0,0,.42-.81c.16-.32.32-.69.49-1.12s.33-1,.47-1.46c.05.69.12,1.37.16,2.06s.08,1.37.08,2l-1.28,2.27a20.71,20.71,0,0,0-.93,2.09,7.62,7.62,0,0,0-.45,1.81,3,3,0,0,0,.18,1.53.72.72,0,0,0,.34.35,2.4,2.4,0,0,0,.54.24,1.76,1.76,0,0,0,.6.1,1.24,1.24,0,0,0,.46-.06A2.32,2.32,0,0,0,94,81a6,6,0,0,0,.63-1,11.26,11.26,0,0,0,.57-1.29,14.35,14.35,0,0,0,.47-1.53c.12-.56.24-1.11.33-1.68a16.63,16.63,0,0,0,.15-1.72c0-.51,0-1,0-1.38,0-.22,0-.41,0-.61.2-.36.34-.64.41-.76s.2-.41.29-.62L97,70s0-.06,0-.09l.06-.13a17.55,17.55,0,0,0,.77-2.59c.08-.42.16-.88.21-1.32a10.24,10.24,0,0,0,.09-1.36,9.35,9.35,0,0,0-.36-2.79A3.21,3.21,0,0,0,97.5,61Zm-13.77,6.2c0-.51-.08-1.43-.08-1.86,0-1.49.07-2.84.11-3.76a14.11,14.11,0,0,1,.4-3.09c.44-1.46.87-1.86,1.09-1.95a.25.25,0,0,1,.19,0c.42.06,1,.58,1,2.11a17.89,17.89,0,0,1-.61,3.77c-.22.9-.51,1.88-.84,3s-.74,2.21-1.21,3.4C83.74,68.26,83.73,67.73,83.73,67.22Zm10,9.53a15.16,15.16,0,0,1-.27,1.68,8.1,8.1,0,0,1-.33,1.31c-.11.36-.25.58-.38.63h0c-.07,0-.12,0-.15-.11a2.88,2.88,0,0,1-.19-1.34,7.23,7.23,0,0,1,.3-1.38,9,9,0,0,1,.58-1.35c.22-.43.4-.84.6-1.2A15.26,15.26,0,0,1,93.73,76.75Z"/><path class="cls-4" d="M56.21,78.06c.15,0,.31.07.49.09a5,5,0,0,1,.59.14.28.28,0,0,0,.36-.23v0c.16-1.56.48-5.35.56-6.45.06-.92.27-5.35.26-5.59,0-.85,0-1.71,0-2.58,0-1.33,0-2.73,0-4.19,0-.12-.08-.22-.19-.29a3.21,3.21,0,0,0-.33-.12,6.17,6.17,0,0,0-.65-.2c-.21-.06-.46-.1-.69-.18l-.25-.07a.29.29,0,0,0-.38.17.26.26,0,0,0,0,.15c.09.89.16,1.79.24,2.69.08,1.07.12,2.12.16,3.15s.07,2.06.08,3,0,1.91,0,2.81,0,1.71-.08,2.48-.33,3.83-.43,4.88A.29.29,0,0,0,56.21,78.06Z"/><path class="cls-4" d="M59.35,65.62l-.24.54c0,.07-.85,1.63-.14,2.45,1.08,1.24,2.34,2.67,3.13,3.46a.93.93,0,0,0,1.06.2,3.51,3.51,0,0,0,1-.74.3.3,0,0,0,0-.43l0,0c-1-.63-3.12-2.35-4.3-3.28a.32.32,0,0,1-.08-.41c.67-1,1.25-2,1.75-2.89s1-1.91,1.41-2.8S63.7,59.89,64,59s.55-1.54.81-2.32a.32.32,0,0,0-.19-.4l0,0a1.49,1.49,0,0,0-.25-.07l-.66-.16L63,55.9l-.28-.06a.15.15,0,0,0-.17,0,.3.3,0,0,0-.19.25,11.61,11.61,0,0,1-.25,1.45,19.66,19.66,0,0,1-.5,2c-.19.66-.42,1.37-.66,2.06s-.5,1.38-.77,2.07S59.66,65,59.35,65.62Z"/><path class="cls-4" d="M84.55,83.89a.39.39,0,0,0-.44-.11.12.12,0,0,0-.09.06,16.2,16.2,0,0,1-4.63,2.91,11.58,11.58,0,0,1-4.14.8A9.44,9.44,0,0,1,69,84.68a16.7,16.7,0,0,0,2-3.54,14.53,14.53,0,0,0,1-3.33,10.89,10.89,0,0,0,.06-3,8.26,8.26,0,0,0-.7-2.43,1.32,1.32,0,0,0-.36-.42,4,4,0,0,0-.57-.37,4.47,4.47,0,0,0-1.42-.46,5.17,5.17,0,0,0-.68,0,1.23,1.23,0,0,0-.36.08.57.57,0,0,0-.19.1A8.38,8.38,0,0,0,66,72.94a17.07,17.07,0,0,0-1.49,2.33,2.57,2.57,0,0,0-.11-.44,1.87,1.87,0,0,0-.13-.4,6.49,6.49,0,0,0-.59-.28,6.07,6.07,0,0,0-.77-.23,5.79,5.79,0,0,0-.89-.13,5.25,5.25,0,0,0-1,0,20.94,20.94,0,0,1,.85,2.83c.24,1.11.47,2.35.64,3.66-.27.89-.5,1.8-.71,2.73s-.4,1.85-.55,2.75-.29,1.8-.39,2.69-.18,1.7-.21,2.5,0,1.54,0,2.24a12.84,12.84,0,0,0,.16,1.85l.16.42a.7.7,0,0,0,.27.32l.22.13a2.79,2.79,0,0,0,.43.23c.17.08.34.15.51.25l.54.21a1.93,1.93,0,0,0,.49.09.59.59,0,0,0,.34,0,2.18,2.18,0,0,0,.49-.41l.3-.37a5.47,5.47,0,0,0,.72-1.84,17.15,17.15,0,0,0,.43-2.58,27.28,27.28,0,0,0,.15-3.08c0-1.1,0-2.19-.06-3.33s-.14-2.23-.24-3.34-.24-2.13-.36-3.1c.25-.72.52-1.39.8-2.06s.55-1.26.84-1.82a14.93,14.93,0,0,1,.85-1.49,6.7,6.7,0,0,1,.85-1.06,2.11,2.11,0,0,1,.47-.33.42.42,0,0,1,.27,0,.48.48,0,0,1,.23.16,2,2,0,0,1,.19.33,5.6,5.6,0,0,1,.39,1.22,7.69,7.69,0,0,1,.11,1.59A13,13,0,0,1,70,77a11.81,11.81,0,0,1-.66,2.14,16.6,16.6,0,0,1-1.17,2.35A17.34,17.34,0,0,1,66.37,84c.4.6.87,1.21,1.29,1.8S68.55,87,69,87.51c1.66,1.88,3.77,2.58,6.78,2.59a7,7,0,0,0,2.36-.53,21.75,21.75,0,0,0,6.69-4.73.55.55,0,0,0,0-.72ZM63.29,89c0,1,0,1.93,0,2.74a12.76,12.76,0,0,1-.19,2,1.28,1.28,0,0,1-.39.89h0a.14.14,0,0,1-.15-.09,3.93,3.93,0,0,1-.29-1.4,13.86,13.86,0,0,1,0-2c.07-.76.16-1.61.31-2.52s.35-1.85.56-2.81C63.22,86.84,63.28,87.92,63.29,89Z"/><polygon class="cls-5" points="78.35 70.9 77.36 69.37 78.12 68.51 78.35 70.9"/><polygon class="cls-6" points="76.08 69.87 78.35 70.9 74.58 70.34 76.08 69.87"/><polygon class="cls-7" points="76.08 69.87 75.34 68.39 76.33 67.91 77.36 69.37 76.08 69.87"/><polygon class="cls-5" points="78.12 68.51 77.17 67.3 77.57 66.39 79.19 67.28 78.12 68.51"/><polyline class="cls-7" points="77.57 66.39 74.26 68.66 75.34 68.39 76.33 67.91 77.17 67.3 77.57 66.39"/><g class="cls-8"><path class="cls-9" d="M62.58,80.3l.57,5.41-.34,1.6L61.11,87s.39-2.38.56-3,.58-2.42.58-2.42Z"/><path class="cls-10" d="M64.55,75.25l.64,3.36s.83-2.19,1.07-2.68l-1.13-1.72Z"/><path class="cls-11" d="M69,84.65,66.35,84,70.62,82S69.42,84.11,69,84.65Z"/><path class="cls-12" d="M66.55,68.83s.25,1.2,1,0a10.32,10.32,0,0,0,.76-1.71L67.65,67l-.54,1.14S66.64,69.05,66.55,68.83Z"/><path class="cls-13" d="M68,66.08s.19.91.24,1.06l-.09.26-.62-.21Z"/><path class="cls-14" d="M71.18,65.16a3.35,3.35,0,0,0,.39,1l-.2.5-.66-.11A8.52,8.52,0,0,0,71.18,65.16Z"/><path class="cls-15" d="M74.21,63.33l0,0a1.53,1.53,0,0,0,.61.41s-.18.55-.33.89l-.66-.19"/><path class="cls-16" d="M74.54,62.3s.12-1.57-.23-1.74C74.3,60.54,74,61.09,74.54,62.3Z"/><path class="cls-17" d="M77,60.73,77.09,62a6.91,6.91,0,0,1-.49.84l-.42-.49A5.84,5.84,0,0,0,77,60.73Z"/><path class="cls-18" d="M78.82,61.81c0,.32.24.53.38.39a15.25,15.25,0,0,0,1.31-3.42l-1.13,2.44s-.32.61-.47.67S78.82,61.81,78.82,61.81Z"/><path class="cls-19" d="M83.75,68.79s.06,1.61.17,2.46l1.58-3.74-1.06-.57S83.84,68.58,83.75,68.79Z"/><polygon class="cls-20" points="81.76 74.58 82.08 75.78 81.42 77.25 80.92 76.4 81.76 74.58"/><path class="cls-21" d="M77.57,77.49l-.21-3.7a9.73,9.73,0,0,1-.13,1.1c-.17.85-.36,2-.57,2.73l.39,1.85s.21-.68.3-1S77.57,77.49,77.57,77.49Z"/><path class="cls-22" d="M86.41,58.65c-.07.7.81-4.12-1.33-3.54l-.4,2s.32-.63.72-.61C86,56.55,86.49,57.57,86.41,58.65Z"/><path class="cls-23" d="M85.87,73s.38-1.84.37-2.23-.21-1.41-.9-1a4.67,4.67,0,0,0-.25,1.31,2.18,2.18,0,0,0,.6,1.51,1.58,1.58,0,0,1,.13.26Z"/><path class="cls-24" d="M89.46,70.28l.08,1.43a3.2,3.2,0,0,1-.7.81l-.32-.83A3.58,3.58,0,0,0,89.46,70.28Z"/><path class="cls-25" d="M87.58,72.33l-.2,1.21.51-.28a5.26,5.26,0,0,1,.45-.29l-.27-.91-.3.17Z"/><path class="cls-26" d="M91.89,70.82c.08.42,1.07.42,1.31-.34l-.85-.29a4.14,4.14,0,0,1-.28.5A.3.3,0,0,1,91.89,70.82Z"/><path class="cls-27" d="M93.62,69.18l-.29-3.12s-.09.57-.18,1.19-.23,1.08-.36,1.61Z"/><path class="cls-28" d="M93.87,73.28V75l-.55,1.09-.85-.29S93.35,74.11,93.87,73.28Z"/><path class="cls-29" d="M92.84,80.37c-.31.23-1.32.74-1.56.12a3.35,3.35,0,0,1,0-1l1.17-.23a3.44,3.44,0,0,0,.17,1C92.68,80.54,92.84,80.37,92.84,80.37Z"/><path class="cls-30" d="M62.85,94.4h0c-.21.33-1.25,1.27-2.06.49,0,0-.1-.89-.13-1.47l1.55-.52a4.89,4.89,0,0,0,.19,1.28C62.61,94.86,62.85,94.4,62.85,94.4Z"/><path class="cls-31" d="M79.78,78c.1.24.9.49,1.16.08l.17-.35-.76-.37s-.21.33-.22.36S80,78,79.78,78"/><path class="cls-32" d="M96,69.88l.16,1.91a16.2,16.2,0,0,0,1.09-2.4l-1-.35Z"/><path class="cls-33" d="M59.35,65.62l-.24.54,0,.1c-.12.36-.1.77.77,1.48v0a.33.33,0,0,1,0-.38c.36-.53.67-1,1-1.56l-1.19-.66Z"/></g></g></g></g></svg>