<svg xmlns="http://www.w3.org/2000/svg" viewBox="0 0 21.41 17.39"><defs><style>.cls-1{fill:#FFFFFF;}</style></defs><title>Asset 10</title><g id="Layer_2" data-name="Layer 2"><g id="Layer_8" data-name="Layer 8"><g id="_59FF1b" data-name="59FF1b"><path class="cls-1" d="M6.17,13.55c-2-.24-3.5-1-4.13-3a8.07,8.07,0,0,0,1.16.16,1.64,1.64,0,0,0,1.1-.35A4.45,4.45,0,0,1,.6,6c.64.44,1.25.89,2.11.56-.19-.16-.34-.3-.49-.44A4.73,4.73,0,0,1,.74,3.81,4,4,0,0,1,1.3.73a12.9,12.9,0,0,0,9.1,4.51,1.24,1.24,0,0,0,0-.28A4.48,4.48,0,0,1,13.94.11,4.12,4.12,0,0,1,17.23.7a1.41,1.41,0,0,0,1.16.2A6.77,6.77,0,0,0,20.73.06c0,.52-.47,1.28-1.54,2.31a4.63,4.63,0,0,0,2.22-.22,3.38,3.38,0,0,1-.69,1A3.6,3.6,0,0,1,19.51,4a.28.28,0,0,0-.12.21c0,5.14-2.07,9.11-6.63,11.66a11.35,11.35,0,0,1-3.92,1.35,14.18,14.18,0,0,1-3.19.08,13,13,0,0,1-3.08-.63A8.74,8.74,0,0,1,0,15.34,9.09,9.09,0,0,0,6.17,13.55Z"/></g></g></g></svg>