<svg id="Layer_1" data-name="Layer 1" xmlns="http://www.w3.org/2000/svg" viewBox="0 0 950 780"><defs><style>.cls-1{fill:#d60a51;opacity:0.4;isolation:isolate;}</style></defs><title>Artboard 1</title><polygon class="cls-1" points="526.1 491.09 495.51 492.75 518.83 498.31 526.1 491.09"/><polygon class="cls-1" points="638.04 283.41 627.64 251.73 616.14 296.8 638.04 283.41"/><polygon class="cls-1" points="528.79 266.03 513.42 289.35 530.56 274.54 528.79 266.03"/><polygon class="cls-1" points="676.99 271.17 714.88 273.54 686.98 263.33 676.99 271.17"/><polygon class="cls-1" points="577.49 333.7 570.38 343.44 586.06 337.3 577.49 333.7"/><polygon class="cls-1" points="492.29 522.01 515.42 551.02 504.52 524.12 492.29 522.01"/><polygon class="cls-1" points="322.59 303.61 375.08 318.82 339.09 295.73 322.59 303.61"/><polygon class="cls-1" points="327.34 189.57 326.7 223 352.51 184.13 327.34 189.57"/><polygon class="cls-1" points="234.22 384.63 233.58 418.06 259.38 379.19 234.22 384.63"/><polygon class="cls-1" points="541.18 191.47 553.14 167.9 521.4 186.67 541.18 191.47"/><polygon class="cls-1" points="360.94 466.98 325.85 452.2 348.89 471.09 360.94 466.98"/><polygon class="cls-1" points="202.37 422.54 212.33 415.67 195.45 416.3 202.37 422.54"/><polygon class="cls-1" points="389.16 267.91 376.86 232.79 378.28 261.87 389.16 267.91"/><polygon class="cls-1" points="612.63 566.52 553.83 569.71 598.66 580.4 612.63 566.52"/><polygon class="cls-1" points="622.81 82.81 600.73 116.31 625.35 95.04 622.81 82.81"/><polygon class="cls-1" points="764.55 69.41 820.24 72.89 779.23 57.88 764.55 69.41"/><polygon class="cls-1" points="758.5 105.23 748.05 119.55 771.1 110.52 758.5 105.23"/><polygon class="cls-1" points="535.17 630.26 579.63 686.02 558.68 634.31 535.17 630.26"/><polygon class="cls-1" points="118.73 597.54 137.9 546.12 82.39 597.37 118.73 597.54"/><polygon class="cls-1" points="157.55 278.25 213.25 281.73 172.24 266.72 157.55 278.25"/><polygon class="cls-1" points="226.22 148.47 304.06 171.02 250.69 136.78 226.22 148.47"/><polygon class="cls-1" points="228.45 31.12 227.5 80.7 265.77 23.06 228.45 31.12"/><polygon class="cls-1" points="21.3 404.42 20.33 454.86 59.26 396.21 21.3 404.42"/><polygon class="cls-1" points="635.36 32.88 647.01 9.93 616.1 28.21 635.36 32.88"/><polygon class="cls-1" points="329.1 16.5 346.83 16.35 325.83 3.24 329.1 16.5"/><polygon class="cls-1" points="312.1 556.73 280.71 494.61 290.44 548.19 312.1 556.73"/><polygon class="cls-1" points="447.8 73.07 430.14 22.63 432.18 64.39 447.8 73.07"/><polygon class="cls-1" points="241.58 613.5 217.18 624.61 254.24 629.84 241.58 613.5"/><polygon class="cls-1" points="138.24 65.74 173.32 71.9 136.65 38.35 138.24 65.74"/></svg>