<svg id="Layer_1" data-name="Layer 1" xmlns="http://www.w3.org/2000/svg" viewBox="0 0 950 780"><defs><style>.cls-1,.cls-2{fill:#c06;opacity:0.58;}.cls-2{isolation:isolate;}</style></defs><title>Artboard 1</title><polygon class="cls-1" points="551.87 237.97 579.95 260.54 553.35 221.79 551.87 237.97"/><polygon class="cls-2" points="403.35 497.84 429.2 540.34 419.27 502.71 403.35 497.84"/><polygon class="cls-1" points="406.05 185.58 423.81 230.3 424.78 192.83 406.05 185.58"/><polygon class="cls-1" points="300.03 330.19 249.52 327.62 279.76 342.69 300.03 330.19"/><polygon class="cls-2" points="476.87 296.34 466.47 247.54 463.42 286.46 476.87 296.34"/><polygon class="cls-2" points="273.28 209.69 296.94 213.84 272.21 191.22 273.28 209.69"/><polygon class="cls-1" points="635.22 122.49 633.21 170.98 652.45 140.21 635.22 122.49"/><polygon class="cls-2" points="703.76 188.71 688.47 142.14 671.57 208.39 703.76 188.71"/><polygon class="cls-2" points="354.09 597.13 401.34 674.82 383.19 606.03 354.09 597.13"/><polygon class="cls-1" points="138.27 126.12 167.09 174.4 161.69 97.18 138.27 126.12"/><polygon class="cls-2" points="137.63 308.02 127.18 322.34 150.23 313.32 137.63 308.02"/><polygon class="cls-1" points="370 128.68 415.06 110.65 379.12 105.7 370 128.68"/><polygon class="cls-2" points="557.75 134.74 542.81 64.65 538.43 120.55 557.75 134.74"/><polygon class="cls-2" points="507.24 89.75 499.57 110.6 524.24 91.8 507.24 89.75"/><polygon class="cls-2" points="180.96 522.66 231.52 482.64 184.7 501.42 180.96 522.66"/></svg>