<svg xmlns="http://www.w3.org/2000/svg" viewBox="0 0 906.61 396.99">
    <g id="shards">
        <polygon id="aa" style="fill:#d60a51;" points="435.11 396.99 569 288.23 443.08 331.15 435.11 396.99"/>
        <polygon id="z" style="fill:#d60a51;" points="610.17 333.7 585.81 277.8 563.23 356.48 610.17 333.7"/>
        <polygon id="y" style="fill:#d60a51;" points="244.62 328.22 370.68 291.52 295.85 290.91 244.62 328.22"/>
        <polygon id="x" style="fill:#d60a51;" points="310.23 102.12 416.45 69.77 353.39 69.23 310.23 102.12"/>
        <polygon id="w" style="fill:#d60a51;" points="123.96 84.02 191.01 102.9 141.82 73.19 123.96 84.02"/>
        <polygon id="v" style="fill:#d60a51;" points="676.4 104.56 743.46 123.44 717.05 90.75 676.4 104.56"/>
        <polygon id="u" style="fill:#d60a51;" points="704.79 310.62 678.57 279.99 675.23 299.31 704.79 310.62"/>
        <polygon id="t" style="fill:#d60a51;" points="114.41 281.65 144.57 276.81 133.41 267.02 114.41 281.65"/>
        <polygon id="s" style="fill:#d60a51;" points="353.7 350.53 332.06 308.3 335.12 366.44 353.7 350.53"/>
        <polygon id="r" style="fill:#d60a51;" points="330.43 73.56 312.19 36.35 314.76 87.59 330.43 73.56"/>
        <polygon id="q" style="fill:#d60a51;" points="518.92 122.38 493.56 0 461.82 79.63 518.92 122.38"/>
        <polygon id="p" style="fill:#d60a51;" points="583.96 56.04 524.72 25.25 569.82 88.54 583.96 56.04"/>
        <polygon id="o" style="opacity:0.4;mix-blend-mode:multiply;fill:#d60a51;" points="534.34 77.99 524.77 152.59 555.93 98.11 534.34 77.99"/>
        <polygon id="n" style="opacity:0.4;mix-blend-mode:multiply;fill:#d60a51;" points="609.65 61.57 565.3 66.98 623.35 83.61 609.65 61.57"/>
        <polygon id="m" style="opacity:0.4;mix-blend-mode:multiply;fill:#d60a51;" points="377.06 30.37 332.72 35.78 390.77 52.42 377.06 30.37"/>
        <polygon id="l" style="opacity:0.4;mix-blend-mode:multiply;fill:#d60a51;" points="438.17 352.82 557.66 383.97 478.5 343.02 438.17 352.82"/>
        <polygon id="k" style="opacity:0.4;mix-blend-mode:multiply;fill:#d60a51;" points="291.3 135.41 301.75 100.67 282.74 125.12 291.3 135.41"/>
        <polygon id="j" style="opacity:0.4;mix-blend-mode:multiply;fill:#d60a51;" points="632.34 162.86 642.79 128.12 623.78 152.57 632.34 162.86"/>
        <polygon id="i" style="opacity:0.4;mix-blend-mode:multiply;fill:#d60a51;" points="318.94 344.64 332.79 353.58 326.62 336.19 318.94 344.64"/>
        <polygon id="h" style="opacity:0.4;mix-blend-mode:multiply;fill:#d60a51;" points="268.25 336.49 319.55 316.58 274.38 323.96 268.25 336.49"/>
        <polygon id="g" style="opacity:0.4;mix-blend-mode:multiply;fill:#d60a51;" points="332.65 283 308.22 280.4 334.03 295.57 332.65 283"/>
        <polygon id="f" style="opacity:0.4;mix-blend-mode:multiply;fill:#d60a51;" points="600.83 34.33 601.47 56.72 624.96 30.04 600.83 34.33"/>
        <polygon id="e" style="opacity:0.4;mix-blend-mode:multiply;fill:#d60a51;" points="236.51 208.28 203.97 177.68 228.35 232.92 236.51 208.28"/>
        <polygon id="d" style="opacity:0.4;mix-blend-mode:multiply;fill:#d60a51;" points="251.79 184.07 235 198.88 270.53 199.85 251.79 184.07"/>
        <polygon id="c" style="opacity:0.4;mix-blend-mode:multiply;fill:#d60a51;" points="16.79 133.57 0 148.38 35.53 149.35 16.79 133.57"/>
        <polygon id="b" style="opacity:0.4;mix-blend-mode:multiply;fill:#d60a51;" points="887.86 265.02 871.08 279.84 906.61 280.81 887.86 265.02"/>
        <polygon id="a" style="opacity:0.4;mix-blend-mode:multiply;fill:#d60a51;" points="749.9 175.44 762.09 183.8 756.99 160.9 749.9 175.44"/>
    </g>
</svg>