<svg id="Layer_1" data-name="Layer 1" xmlns="http://www.w3.org/2000/svg" viewBox="0 0 950 780"><defs><style>.cls-1{fill:#c91e50;}</style></defs><title>Artboard 1</title><polygon class="cls-1" points="369.53 522.72 371.75 498.61 354.04 526.83 369.53 522.72"/><polygon class="cls-1" points="563.77 282.48 562.4 315.47 575.49 294.54 563.77 282.48"/><polygon class="cls-1" points="421.25 576.97 458.74 557.95 404.75 567.63 421.25 576.97"/><polygon class="cls-1" points="467.61 496.99 467.87 481.56 456 499.54 467.61 496.99"/><polygon class="cls-1" points="161.91 395.35 209.14 375.14 181.24 374.51 161.91 395.35"/><polygon class="cls-1" points="344.23 391.1 321.92 351.53 324.05 376.12 344.23 391.1"/><polygon class="cls-1" points="485.91 219.84 444.11 225.45 498.44 234.15 485.91 219.84"/><polygon class="cls-1" points="308.94 424.9 267.15 430.51 321.47 439.21 308.94 424.9"/><polygon class="cls-1" points="302.46 249.13 274.28 274.5 324.66 260.85 302.46 249.13"/><polygon class="cls-1" points="619.76 203.78 599.79 172.23 604.71 223.39 619.76 203.78"/><polygon class="cls-1" points="630.85 328.18 630.67 339.21 637.91 326.39 630.85 328.18"/><polygon class="cls-1" points="551.77 523.47 551.59 534.5 558.84 521.68 551.77 523.47"/><polygon class="cls-1" points="422.73 275.06 417.39 289.58 434.57 276.49 422.73 275.06"/><polygon class="cls-1" points="316.56 668.23 320.62 624.16 288.25 675.75 316.56 668.23"/><polygon class="cls-1" points="460.64 736.43 507.82 670.83 424.22 735.07 460.64 736.43"/><polygon class="cls-1" points="660.33 76.86 701.6 110.02 662.5 53.08 660.33 76.86"/><polygon class="cls-1" points="485.34 641.01 485.84 611.35 463.02 645.91 485.34 641.01"/><polygon class="cls-1" points="441.52 120.14 467.78 184.37 469.21 130.55 441.52 120.14"/><polygon class="cls-1" points="168.4 459.29 134.74 399.58 137.95 436.69 168.4 459.29"/><polygon class="cls-1" points="550.45 19.81 490.42 27.87 568.45 40.37 550.45 19.81"/><polygon class="cls-1" points="86.87 488.76 23.81 497.23 105.78 510.36 86.87 488.76"/><polygon class="cls-1" points="100.38 329.02 24.16 325.13 69.79 347.88 100.38 329.02"/><polygon class="cls-1" points="116.64 213.8 87.29 167.43 94.52 242.63 116.64 213.8"/><polygon class="cls-1" points="753.61 238.56 753.25 256.59 767.17 235.63 753.61 238.56"/><polygon class="cls-1" points="330.3 107.08 332.29 54.17 309.92 119.52 330.3 107.08"/><polygon class="cls-1" points="219.01 548.96 185.53 625.32 232.89 580.87 219.01 548.96"/><polygon class="cls-1" points="210.75 191.03 209.38 224.03 222.47 203.09 210.75 191.03"/></svg>