<?xml version="1.0" encoding="utf-8"?>
<!-- Generator: Adobe Illustrator 23.0.3, SVG Export Plug-In . SVG Version: 6.00 Build 0)  -->
<svg version="1.1" id="Layer_1" xmlns="http://www.w3.org/2000/svg" xmlns:xlink="http://www.w3.org/1999/xlink" x="0px" y="0px"
	 viewBox="0 0 950 780" style="enable-background:new 0 0 950 780;" xml:space="preserve">
<style type="text/css">
	.st0{opacity:0.58;fill:#CC0066;}
	.st1{opacity:0.58;fill:#CC0066;enable-background:new    ;}
	.st2{opacity:0.4;fill:#D60A51;enable-background:new    ;}
	.st3{fill:#D60A51;}
</style>
<title>Asset 9</title>
<g>
	<polygon class="st0" points="551.9,238 579.9,260.5 553.3,221.8 	"/>
	<polygon class="st1" points="403.3,497.8 429.2,540.3 419.3,502.7 	"/>
	<polygon class="st0" points="406.1,185.6 423.8,230.3 424.8,192.8 	"/>
	<polygon class="st0" points="300,330.2 249.5,327.6 279.8,342.7 	"/>
	<polygon class="st1" points="476.9,296.3 466.5,247.5 463.4,286.5 	"/>
	<polygon class="st1" points="273.3,209.7 296.9,213.8 272.2,191.2 	"/>
	<polygon class="st0" points="635.2,122.5 633.2,171 652.4,140.2 	"/>
	<polygon class="st1" points="703.8,188.7 688.5,142.1 671.6,208.4 	"/>
	<polygon class="st1" points="354.1,597.1 401.3,674.8 383.2,606 	"/>
	<polygon class="st0" points="138.3,126.1 167.1,174.4 161.7,97.2 	"/>
	<polygon class="st1" points="137.6,308 127.2,322.3 150.2,313.3 	"/>
	<polygon class="st0" points="370,128.7 415.1,110.7 379.1,105.7 	"/>
	<polygon class="st1" points="557.7,134.7 542.8,64.7 538.4,120.6 	"/>
	<polygon class="st1" points="507.2,89.7 499.6,110.6 524.2,91.8 	"/>
	<polygon class="st1" points="181,522.7 231.5,482.6 184.7,501.4 	"/>
</g>
<g>
	<polygon class="st2" points="526.1,491.1 495.5,492.8 518.8,498.3 	"/>
	<polygon class="st2" points="638,283.4 627.6,251.7 616.1,296.8 	"/>
	<polygon class="st2" points="528.8,266 513.4,289.3 530.6,274.5 	"/>
	<polygon class="st2" points="677,271.2 714.9,273.5 687,263.3 	"/>
	<polygon class="st2" points="577.5,333.7 570.4,343.4 586.1,337.3 	"/>
	<polygon class="st2" points="492.3,522 515.4,551 504.5,524.1 	"/>
	<polygon class="st2" points="322.6,303.6 375.1,318.8 339.1,295.7 	"/>
	<polygon class="st2" points="327.3,189.6 326.7,223 352.5,184.1 	"/>
	<polygon class="st2" points="234.2,384.6 233.6,418.1 259.4,379.2 	"/>
	<polygon class="st2" points="541.2,191.5 553.1,167.9 521.4,186.7 	"/>
	<polygon class="st2" points="360.9,467 325.9,452.2 348.9,471.1 	"/>
	<polygon class="st2" points="202.4,422.5 212.3,415.7 195.5,416.3 	"/>
	<polygon class="st2" points="389.2,267.9 376.9,232.8 378.3,261.9 	"/>
	<polygon class="st2" points="612.6,566.5 553.8,569.7 598.7,580.4 	"/>
	<polygon class="st2" points="622.8,82.8 600.7,116.3 625.3,95 	"/>
	<polygon class="st2" points="764.5,69.4 820.2,72.9 779.2,57.9 	"/>
	<polygon class="st2" points="758.5,105.2 748.1,119.5 771.1,110.5 	"/>
	<polygon class="st2" points="535.2,630.3 579.6,686 558.7,634.3 	"/>
	<polygon class="st2" points="118.7,597.5 137.9,546.1 82.4,597.4 	"/>
	<polygon class="st2" points="157.6,278.2 213.2,281.7 172.2,266.7 	"/>
	<polygon class="st2" points="226.2,148.5 304.1,171 250.7,136.8 	"/>
	<polygon class="st2" points="228.4,31.1 227.5,80.7 265.8,23.1 	"/>
	<polygon class="st2" points="21.3,404.4 20.3,454.9 59.3,396.2 	"/>
	<polygon class="st2" points="635.4,32.9 647,9.9 616.1,28.2 	"/>
	<polygon class="st2" points="329.1,16.5 346.8,16.3 325.8,3.2 	"/>
	<polygon class="st2" points="312.1,556.7 280.7,494.6 290.4,548.2 	"/>
	<polygon class="st2" points="-26.8,461.6 -11.7,451.3 -37.2,452.2 	"/>
	<polygon class="st2" points="447.8,73.1 430.1,22.6 432.2,64.4 	"/>
	<polygon class="st2" points="241.6,613.5 217.2,624.6 254.2,629.8 	"/>
	<polygon class="st2" points="138.2,65.7 173.3,71.9 136.6,38.4 	"/>
</g>
<g>
	<polygon class="st3" points="369.5,522.7 371.7,498.6 354,526.8 	"/>
	<polygon class="st3" points="563.8,282.5 562.4,315.5 575.5,294.5 	"/>
	<polygon class="st3" points="421.3,577 458.7,558 404.8,567.6 	"/>
	<polygon class="st3" points="467.6,497 467.9,481.6 456,499.5 	"/>
	<polygon class="st3" points="161.9,395.4 209.1,375.1 181.2,374.5 	"/>
	<polygon class="st3" points="344.2,391.1 321.9,351.5 324.1,376.1 	"/>
	<polygon class="st3" points="485.9,219.8 444.1,225.4 498.4,234.1 	"/>
	<polygon class="st3" points="308.9,424.9 267.1,430.5 321.5,439.2 	"/>
	<polygon class="st3" points="302.5,249.1 274.3,274.5 324.7,260.9 	"/>
	<polygon class="st3" points="619.8,203.8 599.8,172.2 604.7,223.4 	"/>
	<polygon class="st3" points="630.8,328.2 630.7,339.2 637.9,326.4 	"/>
	<polygon class="st3" points="551.8,523.5 551.6,534.5 558.8,521.7 	"/>
	<polygon class="st3" points="422.7,275.1 417.4,289.6 434.6,276.5 	"/>
	<polygon class="st3" points="316.6,668.2 320.6,624.2 288.2,675.7 	"/>
	<polygon class="st3" points="460.6,736.4 507.8,670.8 424.2,735.1 	"/>
	<polygon class="st3" points="660.3,76.9 701.6,110 662.5,53.1 	"/>
	<polygon class="st3" points="485.3,641 485.8,611.4 463,645.9 	"/>
	<polygon class="st3" points="441.5,120.1 467.8,184.4 469.2,130.6 	"/>
	<polygon class="st3" points="168.4,459.3 134.7,399.6 138,436.7 	"/>
	<polygon class="st3" points="550.5,19.8 490.4,27.9 568.5,40.4 	"/>
	<polygon class="st3" points="86.9,488.8 23.8,497.2 105.8,510.4 	"/>
	<polygon class="st3" points="100.4,329 24.2,325.1 69.8,347.9 	"/>
	<polygon class="st3" points="116.6,213.8 87.3,167.4 94.5,242.6 	"/>
	<polygon class="st3" points="753.6,238.6 753.3,256.6 767.2,235.6 	"/>
	<polygon class="st3" points="330.3,107.1 332.3,54.2 309.9,119.5 	"/>
	<polygon class="st3" points="219,549 185.5,625.3 232.9,580.9 	"/>
	<polygon class="st3" points="210.8,191 209.4,224 222.5,203.1 	"/>
</g>
</svg>
